<?xml version="1.0" encoding="UTF-8"?>
<svg id="Layer_1" xmlns="http://www.w3.org/2000/svg" version="1.1" viewBox="0 0 1080 550.74">
  <!-- Generator: Adobe Illustrator 29.0.1, SVG Export Plug-In . SVG Version: 2.1.0 Build 192)  -->
  <defs>
    <style>
      .st0 {
        fill: #f97316;
      }

      .st1, .st2 {
        fill: #fff;
      }

      .st2 {
        stroke: #f97316;
        stroke-miterlimit: 10;
        stroke-width: 4.28px;
      }
    </style>
  </defs>
  <g>
    <path class="st0" d="M189.86,335.57c.39-41.59,7.37-79.79,21.86-116.53,16.61-42.13,43.93-76,79.91-103.17,28.76-21.71,60.65-37.09,95.09-47.38,17.21-5.14,34.73-8.79,52.5-11.41,23.29-3.43,46.69-4.91,70.22-4.43,12.67.26,25.28,1.33,37.89,2.61,17.86,1.8,35.58,4.55,53.1,8.39,64.19,14.06,123.51,39.18,176.54,78.36,31.92,23.59,58.82,52.06,80.99,84.98,9.46,14.05,17.58,28.82,23.52,44.72,6.45,17.28,9.44,35.14,8.48,53.56-1.07,20.66-7.1,39.9-17.6,57.72-7.54,12.79-16.63,24.41-26.9,35.12-14.11,14.71-29.78,27.62-46.17,39.69-3.81,2.8-7.89,4.14-12.51,4.09-3.96-.04-7.2-1.43-9.13-5.12-1.8-3.43-1.12-6.66.86-9.72.86-1.32,1.9-2.53,2.91-3.74,4.97-5.91,8.62-12.62,12.01-19.49.81-1.65,1.53-3.38,1.99-5.15,1.66-6.44-.31-11.37-5.93-14.95-5.93-3.77-12.56-5.47-19.45-6.08-11.08-.97-22.14-.56-33.19.66-39.48,4.33-77.84,13.74-115.7,25.42-49.62,15.31-99.23,30.65-148.87,45.89-23.44,7.2-47.05,13.77-71.06,18.87-17.3,3.68-34.7,6.76-52.3,8.42-14.46,1.36-28.99,1.9-43.48.27-16.92-1.9-33.09-6.51-48.23-14.42-12.1-6.32-22.24-15.05-30.78-25.68-11.21-13.95-19.01-29.73-24.81-46.56-6.58-19.08-10.18-38.74-11.18-58.88-.3-6.06-.45-12.13-.59-16.06Z"/>
    <path class="st1" d="M800.98,300.63c6.84-.13,11.57,1.34,15.85,4.11,6.36,4.12,10.84,9.83,13.65,16.86.99,2.49,1.31,5.07,1.15,7.73-.43,7.34-5.95,12.75-13.29,12.95-1.3.04-2.64-.07-3.91-.32-12.38-2.48-23.31-13.69-25.49-26.13-.14-.77-.25-1.56-.3-2.34-.46-7.23,3.64-12.06,10.88-12.78,1.04-.1,2.1-.11,1.46-.08Z"/>
    <path class="st1" d="M809.78,284.59c-3.87-.19-8.05-.51-11.91-2.46-6.21-3.14-8.26-8.96-5.17-15.18.92-1.86,2.13-3.64,3.54-5.16,5.56-6.02,12.36-9.77,20.64-10.17,4.44-.21,8.92-.02,13.36.34,3.73.3,7.13,1.74,9.84,4.47,4.42,4.46,4.79,11.6-.08,15.41-8.73,6.85-18.26,12.4-30.21,12.74Z"/>
    <path class="st1" d="M241.94,357.99c9.15-.34,17.64,2.22,25.86,5.89,1.66.74,3.28,1.72,4.64,2.91,5.13,4.45,4.73,11.54-.77,15.55-1.94,1.42-4.12,2.37-6.49,2.67-11.76,1.49-23.06.36-33.37-6.14-2.46-1.55-4.79-3.23-6.57-5.57-4.11-5.39-2.19-11.69,4.23-13.82,4.05-1.34,8.25-1.46,12.46-1.49Z"/>
    <path class="st1" d="M257.64,397.59c1.03.13,2.09.17,3.1.4,6.31,1.46,9.82,7.14,7.45,13.18-3.36,8.52-9.33,14.58-18.79,16.03-7,1.08-13.95-3.7-12.18-12.93.66-3.44,2.11-6.48,4.47-9.04,4.29-4.63,9.69-7,15.94-7.64Z"/>
  </g>
  <g>
    <path class="st1" d="M366.22,123.56c-38.59,8.42-56.22,16.29-57.67,25.67-.47,3,1.85,9.16,4.46,11.8,3.42,3.47,5.56,3.5,13.79.47,3.8-1.38,7.04-2.41,7.19-2.28.16.14-2.04,9.28-5.05,20.35l-5.29,20.14-7.62,2.53c-9.33,3.14-14.83,6.14-18.4,10.01-3.44,3.72-4.72,6.79-4.41,10.24.38,3.51,3.41,9.09,5.48,9.93,1.76.73,2.97.18,2.84-1.29-.16-1.84,4.06-5.84,8.11-7.69,4.55-2.11,7.92-3.3,7.97-2.71.01.15-1.53,7.68-3.38,16.72-1.92,9.05-4.51,21.33-5.75,27.36-2.88,14.02-3.02,18.17-.53,22.09,1.04,1.68,3.22,3.7,5.08,4.64,2.96,1.66,3.77,1.74,10.67,1.12,10.12-.91,10.95-1.57,10.94-9.12.01-12.2,3.94-41.63,8.08-60.64l1.53-6.79,4.28-.97c10.94-2.54,32.74-1.83,41.84,1.35,2.21.76,4.78,1.34,5.59,1.27,2.2-.2,6.95-6.54,7.98-10.77,2.05-8.47-.34-12.84-8.18-15.25-4.18-1.25-5.07-1.24-25.39.65-11.66,1.05-21.13,1.83-21.15,1.68-.07-.8,7.83-27.33,9.72-32.61,1.23-3.59,2.22-7.29,2.14-8.25-.09-.96.41-1.97,1.12-2.32.64-.36,7.27-1.4,14.74-2.21,11.49-1.4,14.29-1.5,18.05-.81,4.83.98,9.64,4.31,9.87,6.88.3,3.38,4.64,3.13,8.75-.57,3.7-3.29,5.44-9.36,4.73-16.54-1.06-10.11-4.29-13.89-14.39-16.91-5.85-1.76-22.75-.46-37.76,2.81h0ZM366.22,123.56"/>
    <path class="st1" d="M462.6,107.08c-6.81,1.73-11.95,5.37-17.81,12.79-13.57,17.08-25.28,51.51-25.13,73.88.07,7.7,1.36,15.79,3.26,20.34,2,4.98,6.16,10.45,11.13,14.6,7.34,6.19,12.88,7.74,24.23,6.72,7.9-.65,13.25-2.62,18.52-6.89,8.23-6.64,16.3-24.03,21.23-45.42,5.91-26.14,4.12-49.61-4.75-60.37-1.26-1.57-3.93-3.63-6.21-4.85-2.88-1.55-4.09-2.61-4.52-3.89-.96-3.08-3.44-5.78-6.32-6.71-2.7-.93-10.16-1.01-13.63-.2h0ZM476.27,129.16c2.24,1.42,4.08,6.04,4.55,11.28,1.13,13.2-3.3,36.53-10.56,55.4-4.99,12.94-8.14,16.58-14.8,17.18-2.03.18-2.87-.11-4.9-1.92-5.86-5.13-7.16-16.08-3.92-33.96,3.22-18.07,10.62-36.76,17.42-44.15,4.19-4.48,8.91-6.03,12.21-3.83h0ZM476.27,129.16"/>
    <path class="st1" d="M555.57,89.63c-6.81,1.73-11.95,5.37-17.81,12.79-13.57,17.08-25.28,51.51-25.13,73.88.07,7.7,1.36,15.79,3.26,20.34,2,4.98,6.16,10.45,11.13,14.6,7.34,6.19,12.88,7.74,24.23,6.72,7.9-.65,13.25-2.62,18.52-6.89,8.23-6.64,16.3-24.03,21.23-45.42,5.91-26.14,4.12-49.61-4.75-60.37-1.26-1.57-3.93-3.63-6.21-4.85-2.88-1.55-4.09-2.61-4.52-3.89-.96-3.08-3.44-5.78-6.32-6.71-2.7-.93-10.16-1.01-13.63-.2h0ZM569.25,111.71c2.24,1.42,4.08,6.04,4.55,11.28,1.13,13.2-3.3,36.53-10.56,55.4-4.99,12.94-8.14,16.58-14.8,17.18-2.03.18-2.87-.11-4.9-1.92-5.86-5.13-7.16-16.08-3.92-33.96,3.22-18.07,10.62-36.76,17.42-44.15,4.19-4.48,8.91-6.03,12.21-3.83h0ZM569.25,111.71"/>
    <path class="st1" d="M682.24,58.32c-1.66,1.11-3.9,3.42-4.9,5.01-2.62,4.18-6.02,18.01-9.49,38.07-1.62,9.28-3.58,17.9-4.34,19.19-1.38,2.23-1.71,2.35-11.72,3.34-8.45.76-11.21,1.35-14.99,3.27-15.88,7.93-30.99,28.34-36.41,49.11-3.72,14.39-4.24,28.05-1.42,37.89,3.2,11.13,12.07,21.04,21.25,23.55,10.99,3.05,18.29-.77,26.66-13.99,4.85-7.54,5.74-6.48,4.38,4.79-2.65,20.34-2.62,20.61-1.52,24.1.61,1.88,1.8,4.31,2.6,5.39,3.75,4.66,15.9,5.94,20.83,2.24,3.53-2.68,4.04-4.92,2.85-12.27-1.14-6.92-1-19.94.3-33.74,2.93-30.03,15.66-98.34,24.65-132.17,4.46-16.74,3.98-21.25-2.76-24.95-4.07-2.27-11.48-1.69-15.97,1.17h0ZM656.18,143.37c3.73,4.41,1.74,15.57-6.69,38.09-9.91,26.53-18.86,38.22-25.03,33.07-2-1.67-2.15-2.36-2.46-9.79-.63-19.69,11.49-51.87,22.71-59.99,4.53-3.31,9.39-3.91,11.47-1.39h0ZM656.18,143.37"/>
    <path class="st2" d="M714.38,148.46c-1.98,1.27-4.54,4.35-5.65,6.76-2.49,5.26-6.53,22.4-10.16,41.92-7.14,38.9-5.33,54.2,7.74,65.41,9.98,8.54,25.12,11.12,33.72,5.64,4.56-2.93,11.3-10.88,14.17-16.84,3.14-6.43,2.35-3.07-1.4,6.48-5.26,13.3-14.07,28.79-22.63,39.63-8.85,11.33-15.04,17.04-25.2,23.44-8.83,5.4-10.56,8.08-9.95,14.92.57,6.31,2.34,10.2,6.5,13.79,4.16,3.67,5.98,4.4,12.62,5.1,7.4.65,13.76-1.89,23.48-9.56,19.14-15.2,37.38-48.98,45.94-85.38,4.54-19.05,8.56-45.07,9.62-62.59,2.07-32.97-1.62-41.31-17.41-39.89-5.21.47-9.8,3.07-11.66,6.75-.57,1.15-4.8,15.01-9.41,30.77-11.62,40.31-16.17,50.69-21.57,49.2-1.57-.51-1.82-2.03-2.01-10.12-.15-11.39,1.18-21.05,7.26-51.1,3.27-16.08,4.35-23.52,3.6-25.77-3.19-10.01-18.32-14.79-27.63-8.58h0ZM714.38,148.46"/>
  </g>
  <g>
    <path class="st1" d="M621.54,263.28c-11.1,7.69-24.91,55.94-25.63,89.69-.41,16.58,3.79,28.78,11.98,34.94,2.17,1.62,3.04,1.93,6.15,2.03,1.94.05,4.9-.11,6.58-.35,5.47-.79,11.92-5.05,15.23-10,1.5-2.2,1.6-2.66,1.14-5.8-.61-4.22-2.23-6.58-5.13-7.54-2.38-.81-2.85-.64-9.56,3.44-6.6,4-9.08,2.92-9.57-4.25-1.13-15.36,9.15-62.87,18.1-83.78,2.87-6.54,4.3-11.84,3.95-14.27-.4-2.76-2.28-5.03-4.88-5.81-2.84-.92-5.31-.39-8.37,1.71h0ZM621.54,263.28"/>
    <path class="st1" d="M341.88,317.58c-6.53,2.35-19.15,10.04-26.11,15.9-7.19,5.98-17.51,18.25-21.51,25.63-1.73,3.15-3.92,8.45-4.77,11.79-1.43,5.2-1.56,7.01-.79,12.3.53,3.67,1.39,6.9,2.17,7.97,1.85,2.47,5.46,3.73,9.13,3.2l3.14-.46-.44-3.06c-.5-3.44.36-7.72,2.23-10.95,1.37-2.39,6.08-7.6,6.52-7.27.18.13-.44,3.97-1.25,8.61-3.36,17.67-6.19,40.73-6.86,57-.34,7.32-.16,9.64,1.04,13.6,5.27,16.96,25.39,26.93,45.43,22.37,12.49-2.74,22.86-8.31,32.92-17.51,9.51-8.72,16.01-18.8,19.69-30.59,2.58-8.5,3.29-15.48,2.32-22.76-2.29-16.23-11.17-26.34-25.27-28.74l-4.25-.71,3.33-3.45c5.68-6.06,10.11-12.65,11.54-17.3,1.15-3.93,1.16-5.49.15-12.92-1.13-7.79-1.41-8.69-4.08-12.53-4.73-6.73-13.16-11.52-21.88-12.44-6.84-.8-16.68.24-22.4,2.32h0ZM361.46,340.44c6.42,5.55,5.51,17-1.89,24.57-3.07,3.09-10.92,7.13-16.87,8.62l-4.67,1.23.81-13.24c.42-7.25,1.13-13.76,1.58-14.45.37-.68,2.96-2.7,5.66-4.57,4.27-2.89,5.59-3.47,9.16-3.67,3.39-.26,4.61.03,6.24,1.51h0ZM362.6,390.81c4.26.87,8.48,3.54,10.55,6.51,5.47,8.11,2.95,23.48-5.88,35.85-6.83,9.43-15.07,15.08-25.59,17.39-5.45,1.18-5.85,1.17-8.03-.4-2.71-2.02-3.06-3.92-2.61-12.04.38-5.44,4.17-34.19,5.06-37.76.44-1.86,4.09-4.57,9.16-6.8,4.1-1.84,14.26-3.48,17.33-2.75h0ZM362.6,390.81"/>
    <path class="st1" d="M485.71,323.85c-2.32,1.5-3.21,3.39-7.09,15.45-6.78,21.04-11.15,43.44-11.19,57.58-.08,11.61,1.52,19.61,5.29,26.52,5.65,10.39,19.31,13.49,31.17,6.96,13.04-7.2,22.49-31.49,19.72-50.92-1-6.87-2.5-10.3-6.3-14.44-3.74-4.05-10.63-6.3-14.84-4.86-3.33,1.09-7.81,4.84-11.15,9.19-1.75,2.35-3.25,4.23-3.36,4.24-.54.08-.37-2.16.49-6.92,1.16-6.46,6.14-21.61,9.49-28.95,2.06-4.44,2.5-6,2.25-7.72-.38-2.6-3.22-5.83-5.95-6.76-2.56-.9-6.66-.58-8.53.63h0ZM505.56,374.11c1.25.98,1.6,1.87,2.24,5.15,1.02,5.1.9,9.98-.45,17.47-2.17,12.03-7.26,21.49-11.97,22.18-4.06.59-6.37-1.66-7.11-7.09-1.74-12.73,7.67-37.74,14.64-38.75.6-.09,1.78.41,2.64,1.05h0ZM505.56,374.11"/>
    <path class="st1" d="M551,300.4c-2.32,1.5-3.21,3.39-7.09,15.45-6.78,21.04-11.15,43.44-11.19,57.58-.08,11.61,1.52,19.61,5.29,26.52,5.65,10.39,19.31,13.49,31.17,6.96,13.04-7.2,22.49-31.49,19.72-50.92-1-6.87-2.5-10.3-6.3-14.44-3.74-4.05-10.63-6.3-14.84-4.86-3.33,1.09-7.81,4.84-11.15,9.19-1.75,2.35-3.25,4.23-3.36,4.24-.54.08-.37-2.16.49-6.92,1.16-6.46,6.14-21.61,9.49-28.95,2.06-4.44,2.5-6,2.25-7.72-.38-2.6-3.22-5.83-5.95-6.76-2.56-.9-6.66-.58-8.53.63h0ZM570.85,350.66c1.25.98,1.6,1.87,2.24,5.15,1.02,5.1.9,9.98-.45,17.47-2.17,12.03-7.26,21.49-11.97,22.18-4.06.59-6.37-1.66-7.11-7.09-1.74-12.73,7.67-37.74,14.64-38.75.6-.09,1.78.41,2.64,1.05h0ZM570.85,350.66"/>
    <path class="st1" d="M658.57,304.23c-6.7,2.19-12.74,9.31-16.9,19.8-3.95,10.02-4.88,16.95-3.56,26.82.77,5.63,1.24,7.39,2.67,10.38,4.28,8.93,11.39,13.76,20.43,13.99,6.43.17,11.3-2.08,15.48-7.11,5.59-6.73,6.18-13.28,1.46-16.18-2.49-1.57-4.09-1.18-7.4,1.84-6.65,6-14.51,6.2-15.35.47-.18-1.25-.16-2.58.01-2.94.17-.35,2.33-1.11,4.85-1.64,6.15-1.39,9.71-3.84,13.6-9.43,6.73-9.55,8.3-21.59,3.94-29.58-1.87-3.37-6.13-6.84-8.95-7.26-2.78-.48-7.58-.06-10.26.83h0ZM666.42,316.08c2.36,2.14-.14,13.11-4.35,19.08-1.83,2.64-2.51,3.24-3.78,3.26-1.54.06-1.6-.04-1.97-2.92-.8-6.29,4.91-19.05,8.96-20.03.21-.09.7.23,1.14.6h0ZM666.42,316.08"/>
    <path class="st1" d="M422.37,367.37c-2.2,1.98-3.69,6.56-5.72,17.63-4.09,22.03-3.88,34.92.73,41.55,3.41,4.81,6.57,6.78,11.64,7.15,4.7.37,7.4-1.13,10.86-5.89,1.55-2.22,2.89-3.68,2.95-3.25.35,2.05,2.31,7.96,3.1,9.16,1.64,2.58,5.46,3.02,8.58.91,2.21-1.49,2.93-4.52,2.24-9.33-.3-2.06-.48-6.67-.4-10.33.18-7.48,1.9-28.39,2.99-36.78.6-4.68.59-5.83-.11-6.89-1.34-1.96-5.04-3.13-8.45-2.64-4.11.6-4.71,1.79-6.89,13.43-2.37,12.55-2.93,15.18-5.09,23.11-1.88,7.18-3.33,10.54-5.41,12.61-1.21,1.17-1.42,1.25-2.3.55-1.55-1.15-2.14-4.44-1.81-10.56.36-7.02,2.39-21.17,4.35-30.13,1.46-6.68,1.45-6.73.25-8.49-2.55-3.88-8.31-4.76-11.53-1.8h0ZM422.37,367.37"/>
  </g>
</svg>